<svg width="1200" height="760" viewBox="0 0 1200 760" fill="none" xmlns="http://www.w3.org/2000/svg">
  <rect width="1200" height="760" rx="36" fill="#121418"/>
  <rect width="1200" height="82" fill="#1E2126"/>
  <rect x="28" y="18" width="34" height="34" rx="17" fill="#2F8D46"/>
  <rect x="60" y="18" width="34" height="34" rx="17" fill="#2F8D46"/>
  <path d="M38 35H84" stroke="#121418" stroke-width="6" stroke-linecap="round"/>
  <rect x="108" y="13" width="222" height="44" rx="22" stroke="#2F8D46" stroke-width="2"/>
  <circle cx="129" cy="35" r="8" stroke="white" stroke-width="3"/>
  <path d="M135 41L143 49" stroke="white" stroke-width="3" stroke-linecap="round"/>
  <text x="153" y="42" fill="white" font-family="Inter, Arial, sans-serif" font-size="18" font-weight="700">Search...</text>
  <text x="474" y="42" fill="white" font-family="Inter, Arial, sans-serif" font-size="18" font-weight="700">Courses</text>
  <text x="594" y="42" fill="white" font-family="Inter, Arial, sans-serif" font-size="18" font-weight="700">Tutorials</text>
  <text x="714" y="42" fill="white" font-family="Inter, Arial, sans-serif" font-size="18" font-weight="700">Practice</text>
  <text x="834" y="42" fill="white" font-family="Inter, Arial, sans-serif" font-size="18" font-weight="700">Jobs</text>
  <rect x="1070" y="10" width="86" height="48" rx="14" fill="#20303E"/>
  <text x="1092" y="40" fill="white" font-family="Inter, Arial, sans-serif" font-size="18" font-weight="700">Sign In</text>
  <rect y="82" width="1200" height="58" fill="#232323"/>
  <text x="272" y="118" fill="white" font-family="Inter, Arial, sans-serif" font-size="18" font-weight="600">DSA</text>
  <text x="338" y="118" fill="white" font-family="Inter, Arial, sans-serif" font-size="18" font-weight="600">Practice Problems</text>
  <text x="596" y="118" fill="white" font-family="Inter, Arial, sans-serif" font-size="18" font-weight="600">Java</text>
  <text x="768" y="118" fill="white" font-family="Inter, Arial, sans-serif" font-size="18" font-weight="600">JavaScript</text>
  <text x="925" y="118" fill="white" font-family="Inter, Arial, sans-serif" font-size="18" font-weight="600">Machine Learning</text>
  <rect y="140" width="1200" height="620" fill="url(#hero)"/>
  <text x="290" y="250" fill="#F7F7F7" font-family="Plus Jakarta Sans, Arial, sans-serif" font-size="54" font-weight="800">Hello, What Do You Want To Learn?</text>
  <rect x="240" y="320" width="740" height="62" rx="16" fill="#232528" stroke="#556170"/>
  <text x="272" y="360" fill="#9CA3AF" font-family="Inter, Arial, sans-serif" font-size="22" font-weight="500">Data Structures and Alg</text>
  <rect x="462" y="404" width="104" height="38" rx="10" fill="#0C9A6D"/>
  <rect x="584" y="404" width="108" height="38" rx="10" fill="#555D68"/>
  <rect x="710" y="404" width="104" height="38" rx="10" fill="#555D68"/>
  <text x="474" y="429" fill="white" font-family="Inter, Arial, sans-serif" font-size="16" font-weight="700">DSA Online</text>
  <text x="596" y="429" fill="white" font-family="Inter, Arial, sans-serif" font-size="16" font-weight="700">DS, ML &amp; AI</text>
  <text x="723" y="429" fill="white" font-family="Inter, Arial, sans-serif" font-size="16" font-weight="700">LLD &amp; HLD</text>
  <rect x="112" y="514" width="976" height="190" rx="24" fill="#0E1116" stroke="#1E293B"/>
  <text x="152" y="592" fill="#F7F7F7" font-family="Plus Jakarta Sans, Arial, sans-serif" font-size="44" font-weight="800">Need help with</text>
  <text x="152" y="652" fill="#10B981" font-family="Plus Jakarta Sans, Arial, sans-serif" font-size="44" font-weight="800">Learning Roadmaps?</text>
  <text x="152" y="704" fill="#CBD5E1" font-family="Inter, Arial, sans-serif" font-size="18" font-weight="500">Connect with trusted experts, anytime.</text>
  <circle cx="836" cy="594" r="56" fill="#E09A7B" stroke="#0F8A69" stroke-width="5"/>
  <circle cx="1000" cy="655" r="52" fill="#D9E0E6" stroke="#0F8A69" stroke-width="5"/>
  <circle cx="740" cy="634" r="38" fill="#B4C7D9" stroke="#0F8A69" stroke-width="4"/>
  <rect x="718" y="516" width="184" height="54" rx="16" fill="#1F2430"/>
  <text x="734" y="546" fill="#CBD5E1" font-family="Inter, Arial, sans-serif" font-size="15">Hi Everyone, hope you all are doing</text>
  <rect x="878" y="606" width="166" height="56" rx="16" fill="#1F2430"/>
  <rect x="720" y="664" width="144" height="54" rx="16" fill="#1F2430"/>
  <defs>
    <linearGradient id="hero" x1="600" y1="140" x2="600" y2="760" gradientUnits="userSpaceOnUse">
      <stop stop-color="#303236"/>
      <stop offset="1" stop-color="#0C0D12"/>
    </linearGradient>
  </defs>
</svg>
